<svg width="331" height="331" viewBox="0 0 331 331" fill="none" xmlns="http://www.w3.org/2000/svg">
<path d="M257.38 113.701C256.788 112.575 255.997 111.588 255.053 110.795C254.11 110.003 253.031 109.42 251.88 109.082C250.73 108.744 249.529 108.657 248.347 108.825C247.165 108.993 246.025 109.413 244.992 110.062L175.78 153.314L120.182 118.266L180.281 80.7008C181.362 80.0818 182.317 79.232 183.089 78.2021C183.861 77.1723 184.435 75.9835 184.775 74.707C185.116 73.4305 185.216 72.0924 185.071 70.7726C184.925 69.4528 184.537 68.1786 183.928 67.0259C183.32 65.8733 182.505 64.8659 181.531 64.0641C180.556 63.2623 179.444 62.6825 178.259 62.3593C177.074 62.0361 175.842 61.9761 174.636 62.1831C173.429 62.39 172.274 62.8595 171.238 63.5636L97.497 109.667C97.1744 109.87 96.8626 110.093 96.5634 110.335C96.2844 110.558 96.0233 110.806 95.7831 111.078L95.588 111.275C95.3929 111.502 95.2118 111.73 95.0306 111.972L94.8634 112.2C94.6432 112.516 94.4385 112.846 94.2503 113.186C94.0729 113.529 93.9147 113.883 93.7765 114.247C93.738 114.336 93.7054 114.427 93.679 114.52C93.5716 114.808 93.4785 115.101 93.4003 115.4C93.3941 115.491 93.3941 115.582 93.4003 115.673C93.304 116.04 93.2341 116.416 93.1913 116.795V116.795C93.1468 117.198 93.1235 117.603 93.1216 118.008V211.581C93.0236 212.94 93.1849 214.307 93.5956 215.595C94.0063 216.884 94.6575 218.066 95.5081 219.067C96.3587 220.068 97.3905 220.867 98.5385 221.414C99.6865 221.96 100.926 222.242 102.179 222.242C103.432 222.242 104.671 221.96 105.819 221.414C106.967 220.867 107.999 220.068 108.85 219.067C109.7 218.066 110.352 216.884 110.762 215.595C111.173 214.307 111.334 212.94 111.236 211.581V135.373L166.695 170.482V258.276C166.597 259.635 166.758 261.002 167.169 262.29C167.58 263.579 168.231 264.761 169.082 265.762C169.932 266.764 170.964 267.563 172.112 268.109C173.26 268.655 174.499 268.938 175.752 268.938C177.005 268.938 178.245 268.655 179.393 268.109C180.541 267.563 181.573 266.764 182.423 265.762C183.274 264.761 183.925 263.579 184.336 262.29C184.746 261.002 184.908 259.635 184.81 258.276V170.482L254.008 127.229C255.048 126.584 255.96 125.722 256.692 124.692C257.425 123.662 257.963 122.485 258.277 121.228C258.59 119.971 258.672 118.659 258.518 117.367C258.364 116.076 257.978 114.83 257.38 113.701V113.701Z" fill="white"/>
</svg>
